<svg width="79" height="31" viewBox="0 0 79 31" fill="none" xmlns="http://www.w3.org/2000/svg">
<path d="M0.799805 23V2H13.2028V5.66H4.4592V9.92H11.763V13.58H4.4592V23H0.799805Z" fill="black"/>
<path d="M20.7852 23.39C19.4054 23.39 18.1456 23.035 17.0058 22.325C15.876 21.615 14.9711 20.665 14.2912 19.475C13.6214 18.275 13.2864 16.95 13.2864 15.5C13.2864 14.4 13.4814 13.375 13.8713 12.425C14.2613 11.465 14.7962 10.625 15.4761 9.905C16.1659 9.175 16.9658 8.605 17.8757 8.195C18.7855 7.785 19.7553 7.58 20.7852 7.58C22.1649 7.58 23.4197 7.935 24.5496 8.645C25.6894 9.355 26.5942 10.31 27.2641 11.51C27.944 12.71 28.2839 14.04 28.2839 15.5C28.2839 16.59 28.089 17.61 27.699 18.56C27.3091 19.51 26.7692 20.35 26.0793 21.08C25.3994 21.8 24.6045 22.365 23.6947 22.775C22.7948 23.185 21.825 23.39 20.7852 23.39ZM20.7852 19.73C21.5151 19.73 22.1699 19.535 22.7498 19.145C23.3298 18.755 23.7847 18.24 24.1146 17.6C24.4546 16.96 24.6245 16.26 24.6245 15.5C24.6245 14.72 24.4496 14.01 24.0996 13.37C23.7597 12.72 23.2948 12.205 22.7049 11.825C22.125 11.435 21.4851 11.24 20.7852 11.24C20.0653 11.24 19.4154 11.435 18.8355 11.825C18.2556 12.215 17.7957 12.735 17.4557 13.385C17.1158 14.035 16.9458 14.74 16.9458 15.5C16.9458 16.29 17.1208 17.005 17.4707 17.645C17.8207 18.285 18.2856 18.795 18.8655 19.175C19.4554 19.545 20.0953 19.73 20.7852 19.73Z" fill="black"/>
<path d="M37.2766 23.39C35.8968 23.39 34.637 23.035 33.4972 22.325C32.3674 21.615 31.4625 20.665 30.7827 19.475C30.1128 18.275 29.7778 16.95 29.7778 15.5C29.7778 14.4 29.9728 13.375 30.3627 12.425C30.7527 11.465 31.2876 10.625 31.9675 9.905C32.6574 9.175 33.4572 8.605 34.3671 8.195C35.2769 7.785 36.2468 7.58 37.2766 7.58C38.6564 7.58 39.9112 7.935 41.041 8.645C42.1808 9.355 43.0856 10.31 43.7555 11.51C44.4354 12.71 44.7753 14.04 44.7753 15.5C44.7753 16.59 44.5804 17.61 44.1904 18.56C43.8005 19.51 43.2606 20.35 42.5707 21.08C41.8908 21.8 41.096 22.365 40.1861 22.775C39.2863 23.185 38.3164 23.39 37.2766 23.39ZM37.2766 19.73C38.0065 19.73 38.6614 19.535 39.2413 19.145C39.8212 18.755 40.2761 18.24 40.606 17.6C40.946 16.96 41.116 16.26 41.116 15.5C41.116 14.72 40.941 14.01 40.591 13.37C40.2511 12.72 39.7862 12.205 39.1963 11.825C38.6164 11.435 37.9765 11.24 37.2766 11.24C36.5567 11.24 35.9068 11.435 35.3269 11.825C34.747 12.215 34.2871 12.735 33.9471 13.385C33.6072 14.035 33.4372 14.74 33.4372 15.5C33.4372 16.29 33.6122 17.005 33.9621 17.645C34.3121 18.285 34.777 18.795 35.3569 19.175C35.9468 19.545 36.5867 19.73 37.2766 19.73Z" fill="black"/>
<path d="M58.5072 0.5H62.1666V23H58.5072V21.125C58.0273 21.795 57.4224 22.34 56.6925 22.76C55.9626 23.18 55.1178 23.39 54.1579 23.39C53.0681 23.39 52.0483 23.185 51.0984 22.775C50.1486 22.365 49.3087 21.8 48.5789 21.08C47.859 20.35 47.2941 19.51 46.8841 18.56C46.4742 17.61 46.2692 16.59 46.2692 15.5C46.2692 14.41 46.4742 13.39 46.8841 12.44C47.2941 11.49 47.859 10.655 48.5789 9.935C49.3087 9.205 50.1486 8.635 51.0984 8.225C52.0483 7.815 53.0681 7.61 54.1579 7.61C55.1178 7.61 55.9626 7.82 56.6925 8.24C57.4224 8.65 58.0273 9.195 58.5072 9.875V0.5ZM54.2029 19.865C54.9828 19.865 55.6727 19.67 56.2726 19.28C56.8725 18.89 57.3424 18.365 57.6824 17.705C58.0223 17.035 58.1923 16.3 58.1923 15.5C58.1923 14.69 58.0223 13.955 57.6824 13.295C57.3424 12.625 56.8675 12.095 56.2576 11.705C55.6577 11.315 54.9728 11.12 54.2029 11.12C53.4331 11.12 52.7332 11.32 52.1033 11.72C51.4734 12.11 50.9685 12.635 50.5885 13.295C50.2086 13.955 50.0186 14.69 50.0186 15.5C50.0186 16.31 50.2086 17.045 50.5885 17.705C50.9685 18.365 51.4734 18.89 52.1033 19.28C52.7432 19.67 53.4431 19.865 54.2029 19.865Z" fill="black"/>
<path d="M74.9154 8H78.7998L70.5962 30.5H66.7118L69.4264 23L64.0272 8H68.0316L71.256 17.99L74.9154 8Z" fill="black"/>
</svg>
